<?xml version="1.0" encoding="utf-8"?>
<!-- Generator: Adobe Illustrator 16.0.3, SVG Export Plug-In . SVG Version: 6.00 Build 0)  -->
<!DOCTYPE svg PUBLIC "-//W3C//DTD SVG 1.1//EN" "http://www.w3.org/Graphics/SVG/1.1/DTD/svg11.dtd">
<svg version="1.1" id="Capa_1" xmlns="http://www.w3.org/2000/svg" xmlns:xlink="http://www.w3.org/1999/xlink" x="0px" y="0px"
	 width="100px" height="100px" viewBox="0 0 100 100" enable-background="new 0 0 100 100" xml:space="preserve">
<g>
	<path fill-rule="evenodd" clip-rule="evenodd" fill="#FFFFFF" d="M12.2,78.598c-1.357,0-2.674,0.023-3.989-0.005
		c-1.771-0.037-3.109-1.244-3.17-2.817c-0.063-1.613,1.292-2.96,3.121-3.021c1.355-0.047,2.714-0.01,4.145-0.01
		c0-18.651,0-37.14,0-55.843c-1.27,0-2.521,0.008-3.773-0.001c-2.076-0.015-3.507-1.226-3.492-2.94
		c0.015-1.72,1.429-2.892,3.533-2.914c1.213-0.014,2.425-0.002,3.812-0.002c0-1.443-0.021-2.75,0.005-4.056
		c0.04-1.944,1.334-3.337,3.008-3.283c1.623,0.053,2.81,1.419,2.838,3.299c0.019,1.268,0.003,2.536,0.003,3.921
		c18.607,0,37.129,0,55.842,0c0-1.257-0.012-2.513,0.003-3.77c0.026-2.063,1.273-3.492,2.991-3.451
		c1.669,0.04,2.84,1.434,2.86,3.426c0.012,1.22,0.002,2.442,0.002,3.913c1.264,0,2.463-0.006,3.66,0.001
		c2.25,0.014,3.655,1.129,3.676,2.908c0.021,1.789-1.387,2.94-3.614,2.949c-1.169,0.004-2.337,0-3.643,0
		c-0.029,0.563-0.075,1.033-0.075,1.503c-0.004,12.486,0.011,24.972-0.028,37.458c-0.003,1.103,0.291,1.606,1.385,1.97
		c4.965,1.65,9.886,3.433,14.838,5.124c1.545,0.528,2.793,1.272,2.861,3.09c0.052,1.414-0.902,2.396-2.879,3.056
		c-5.845,1.954-11.683,3.928-17.547,5.82c-1.233,0.397-1.904,1.03-2.308,2.285c-1.917,5.96-3.929,11.888-5.915,17.825
		c-0.58,1.737-1.583,2.624-2.938,2.64c-1.349,0.017-2.372-0.836-2.986-2.579c-1.785-5.075-3.558-10.153-5.313-15.239
		c-0.252-0.733-0.442-1.279-1.441-1.275c-12.927,0.037-25.853,0.026-38.78,0.033c-0.142,0-0.284,0.045-0.651,0.105
		c0,1.27,0.012,2.571-0.002,3.869c-0.024,1.994-1.213,3.35-2.917,3.352c-1.694,0.002-2.898-1.365-2.934-3.352
		c-0.021-1.175-0.019-2.349-0.033-3.523C12.354,78.973,12.297,78.884,12.2,78.598z M46.288,24.473
		c-6.876,6.84-13.759,13.689-20.455,20.349c6.756,6.785,13.608,13.669,20.602,20.691c1.695-1.726,3.497-3.509,5.222-5.364
		c0.238-0.256,0.234-0.909,0.106-1.304c-0.706-2.184-1.462-4.354-2.251-6.51c-0.492-1.34-0.561-2.583,0.534-3.662
		c1.096-1.082,2.341-0.971,3.672-0.482c2.11,0.774,4.236,1.51,6.372,2.208c0.406,0.132,1.076,0.207,1.32-0.02
		c1.886-1.755,3.698-3.59,5.431-5.299C59.829,38.049,52.972,31.174,46.288,24.473z M18.337,16.949c0,8.964,0,17.776,0,26.668
		C27.253,34.7,36.079,25.87,44.997,16.949C36.055,16.949,27.26,16.949,18.337,16.949z M47.194,16.971
		c9.002,9,17.829,17.827,26.798,26.794c0-9.077,0-17.901,0-26.794C65.107,16.971,56.313,16.971,47.194,16.971z M45.046,72.67
		c-8.967-8.972-17.789-17.796-26.717-26.729c0,9.016,0,17.837,0,26.729C27.206,72.67,35.994,72.67,45.046,72.67z M86.521,66.161
		c-0.003-0.129-0.006-0.257-0.009-0.386c-9.78-3.399-19.559-6.799-29.741-10.339c3.568,10.247,6.968,20.015,10.369,29.783
		c1.465-3.33,2.803-6.554,3.599-9.907c0.797-3.366,2.614-5.113,5.95-5.917C80.032,68.591,83.249,67.262,86.521,66.161z
		 M67.025,52.843c2.62,0.897,4.752,1.627,6.962,2.384c0-3.215,0-6.162,0-8.656C71.898,48.452,69.622,50.505,67.025,52.843z
		 M54.212,65.82c-2.3,2.504-4.389,4.781-6.29,6.85c2.526,0,5.487,0,8.672,0C55.807,70.404,55.065,68.272,54.212,65.82z"/>
	<path fill-rule="evenodd" clip-rule="evenodd" fill="#FFFFFF" d="M67.025,52.843c2.597-2.338,4.873-4.391,6.962-6.272
		c0,2.494,0,5.441,0,8.656C71.777,54.47,69.646,53.74,67.025,52.843z"/>
	<path fill-rule="evenodd" clip-rule="evenodd" fill="#FFFFFF" d="M54.212,65.82c0.854,2.452,1.595,4.584,2.383,6.85
		c-3.186,0-6.146,0-8.672,0C49.823,70.602,51.912,68.324,54.212,65.82z"/>
	<path fill-rule="evenodd" clip-rule="evenodd" fill="#FFFFFF" d="M44.667,40.441c1.522-0.019,2.905,1.322,2.945,2.854
		c0.041,1.59-1.361,3.005-2.954,2.981c-1.528-0.024-2.883-1.396-2.88-2.919C41.78,41.83,43.137,40.46,44.667,40.441z"/>
</g>
<g>
</g>
<g>
</g>
<g>
</g>
<g>
</g>
<g>
</g>
<g>
</g>
</svg>
